<?xml version="1.0" encoding="UTF-8"?>
<svg id="Calque_1" data-name="Calque 1" xmlns="http://www.w3.org/2000/svg" xmlns:xlink="http://www.w3.org/1999/xlink" viewBox="0 0 329.88 233.69">
  <defs>
    <style>
      .cls-1 {
        fill: #96c594;
      }

      .cls-2 {
        fill: none;
      }

      .cls-3 {
        fill: #669aca;
      }

      .cls-4 {
        clip-path: url(#clippath-1);
      }

      .cls-5 {
        fill: #ba7fb6;
      }

      .cls-6 {
        fill: #f9c762;
      }

      .cls-7 {
        fill: #eb5f69;
      }

      .cls-8 {
        clip-path: url(#clippath);
      }
    </style>
    <clipPath id="clippath">
      <path class="cls-2" d="M135.06,2.78l-.29,195.27c0,8.13,1.74,15.05,5.23,20.78,3.48,5.73,7.64,8.59,12.49,8.59v3.12h-53.43v-37.18c-3.1,12.5-8.67,22.34-16.7,29.53-8.03,7.19-17.57,10.78-28.61,10.78-7.16,0-13.99-1.62-20.47-4.84-6.49-3.23-12.25-8.02-17.28-14.37-5.04-6.35-9-14.11-11.91-23.27C1.19,182.03-.17,171.51.02,159.63c.19-11.87,1.89-23.22,5.08-34.06,3.19-10.83,7.64-20.31,13.36-28.43,5.71-8.12,12.49-14.58,20.33-19.37,7.84-4.79,16.6-7.18,26.28-7.18,5.42,0,10.07.73,13.94,2.19,3.87,1.46,7.16,3.39,9.88,5.78,2.71,2.4,4.83,5.05,6.39,7.97,1.55,2.92,2.81,5.83,3.78,8.75v-50.61c0-9.58-1.74-16.92-5.23-22.02-3.49-5.1-8.53-7.66-15.1-7.66v-3.12c10.07,0,19.94-1.09,29.62-3.28s17.61-5.05,23.81-8.59l2.9,2.81v-.03ZM36.33,158.37c0,8.96.43,17.5,1.31,25.62.87,8.12,2.42,15.21,4.65,21.24,2.22,6.04,5.12,10.89,8.71,14.53,3.58,3.64,7.98,5.47,13.21,5.47,4.84,0,9.34-1.45,13.5-4.37,4.16-2.92,7.84-6.82,11.04-11.72,3.19-4.89,5.71-10.62,7.55-17.19,1.84-6.56,2.76-13.48,2.76-20.78l-.3-63.73c0-2.7-.63-5.78-1.89-9.22s-3.05-6.72-5.37-9.84-5.18-5.78-8.57-7.97-7.31-3.28-11.76-3.28c-5.81,0-10.89,2.03-15.25,6.09s-7.99,9.68-10.89,16.87-5.08,15.73-6.54,25.62c-1.45,9.9-2.18,20.78-2.18,32.65h.02Z"/>
    </clipPath>
    <clipPath id="clippath-1">
      <path class="cls-2" d="M272.66,2.78l-.29,195.27c0,8.13,1.74,15.05,5.23,20.78,3.48,5.73,7.64,8.59,12.49,8.59v3.12h-53.43v-37.18c-3.1,12.5-8.67,22.34-16.7,29.53-8.03,7.19-17.57,10.78-28.61,10.78-7.16,0-13.99-1.62-20.47-4.84-6.49-3.23-12.25-8.02-17.28-14.37-5.04-6.35-9-14.11-11.91-23.27-2.9-9.16-4.26-19.68-4.07-31.56.19-11.87,1.89-23.22,5.08-34.06,3.19-10.83,7.64-20.31,13.36-28.43,5.71-8.12,12.49-14.58,20.33-19.37,7.84-4.79,16.6-7.18,26.28-7.18,5.42,0,10.07.73,13.94,2.19,3.87,1.46,7.16,3.39,9.88,5.78,2.71,2.4,4.83,5.05,6.39,7.97,1.55,2.92,2.81,5.83,3.78,8.75v-50.61c0-9.58-1.74-16.92-5.23-22.02-3.49-5.1-8.53-7.66-15.1-7.66v-3.12c10.07,0,19.94-1.09,29.62-3.28s17.61-5.05,23.81-8.59l2.9,2.81v-.03ZM173.93,158.37c0,8.96.43,17.5,1.31,25.62.87,8.12,2.42,15.21,4.65,21.24,2.22,6.04,5.12,10.89,8.71,14.53,3.58,3.64,7.98,5.47,13.21,5.47,4.84,0,9.34-1.45,13.5-4.37,4.16-2.92,7.84-6.82,11.04-11.72,3.19-4.89,5.71-10.62,7.55-17.19,1.84-6.56,2.76-13.48,2.76-20.78l-.3-63.73c0-2.7-.63-5.78-1.89-9.22s-3.05-6.72-5.37-9.84-5.18-5.78-8.57-7.97-7.31-3.28-11.76-3.28c-5.81,0-10.89,2.03-15.25,6.09s-7.99,9.68-10.89,16.87-5.08,15.73-6.54,25.62c-1.45,9.9-2.18,20.78-2.18,32.65h.02Z"/>
    </clipPath>
  </defs>
  <g class="cls-8">
    <g>
      <path class="cls-1" d="M108.46,45.97l-34.21-19.51c-17.8-10.15-24.58-33.9-15.15-53.05l2.41-4.89c9.43-19.15,31.51-26.45,49.31-16.3l34.21,19.51c17.8,10.15,24.58,33.9,15.15,53.05l-2.41,4.89c-9.43,19.15-31.51,26.45-49.31,16.3Z"/>
      <rect class="cls-5" x="-30.8" y="107.28" width="253.84" height="84.77"/>
      <polygon class="cls-3" points="209.17 156.74 -7 109.27 5.71 42.23 221.88 89.7 209.17 156.74"/>
      <polygon class="cls-6" points="149.08 75.04 66.37 54.94 71.1 32.37 153.82 52.46 149.08 75.04"/>
      <polygon class="cls-7" points="254.18 260.48 -185.59 260.48 -184.89 192.06 254.88 192.06 254.18 260.48"/>
    </g>
  </g>
  <g class="cls-4">
    <g>
      <path class="cls-1" d="M243.74,77.11l-32.99-21.8c-17.17-11.34-22.54-35.51-11.99-53.98l1.68-2.95c10.54-18.47,33.01-24.24,50.17-12.9l32.99,21.8c17.17,11.34,22.54,35.51,11.99,53.98l-1.68,2.95c-10.54,18.47-33.01,24.24-50.17,12.9h0Z"/>
      <polygon class="cls-5" points="350.41 261.93 99.57 220.1 111.64 136.33 362.48 178.16 350.41 261.93"/>
      <polygon class="cls-3" points="339.16 185.26 122.98 137.8 135.7 70.76 351.87 118.22 339.16 185.26"/>
      <polygon class="cls-6" points="272.04 104.88 116.37 67.06 121.11 44.48 276.78 82.3 272.04 104.88"/>
      <polygon class="cls-7" points="390.45 260.48 -49.32 260.48 -48.62 192.06 391.16 192.06 390.45 260.48"/>
    </g>
  </g>
  <path class="cls-7" d="M324.07,197.14c-3.87-4.17-8.61-6.25-14.23-6.25s-10.31,2.08-14.08,6.25c-3.78,4.17-5.67,9.27-5.67,15.31s1.89,11.09,5.67,15.15c3.77,4.06,8.46,6.09,14.08,6.09s10.36-2.03,14.23-6.09,5.81-9.11,5.81-15.15-1.94-11.14-5.81-15.31h0Z"/>
</svg>